<?xml version="1.0" encoding="utf-8"?>
<!-- Generator: Adobe Illustrator 25.2.0, SVG Export Plug-In . SVG Version: 6.00 Build 0)  -->
<svg version="1.1" id="Слой_1" xmlns="http://www.w3.org/2000/svg" xmlns:xlink="http://www.w3.org/1999/xlink" x="0px" y="0px"
	 viewBox="0 0 1720 880" style="enable-background:new 0 0 1720 880;" xml:space="preserve">
<style type="text/css">
	.st0{fill:#F2F2F2;}
	.st1{font-family:'FairyMuffinRoundPop';}
	.st2{font-size:218.1243px;}
	.st3{fill:#C83534;}
	.st4{fill:#B01F1E;}
	.st5{fill:#A70A0A;}
	.st6{fill:#FED402;}
	.st7{fill:#AE2521;}
	.st8{fill:#FFF9F0;}
	.st9{fill:#FFEFE1;}
	.st10{display:none;fill:#FED402;}
	.st11{display:none;fill:#FAC600;}
	.st12{display:none;fill:#D7AA02;}
	.st13{fill:#FAC600;}
	.st14{display:none;}
	.st15{fill:#1B001B;}
	.st16{fill:none;}
	.st17{display:none;fill:#FFFFFF;}
	.st18{fill:#FFFFFF;}
</style>
<text transform="matrix(1 0 0 1 628.4227 577.978)" class="st0 st1 st2">Patchouli</text>
<text transform="matrix(1 0 0 1 628.4227 372.978)" class="st0 st1 st2">Anilibria</text>
<g>
	<path class="st3" d="M570.2,655.6H113V178c0-44.6,36.5-81,81-81h357.2c10.5,0,19,8.5,19,19L570.2,655.6L570.2,655.6z"/>
	<path class="st4" d="M551.2,97h-39.8c10.5,0,19,8.5,19,19v539.6h39.8V116C570.2,105.5,561.7,97,551.2,97L551.2,97z"/>
	<path class="st4" d="M200.4,97h-11.2c-42,0-76.3,34.3-76.3,76.3v482.4h87.5V97z"/>
	<path class="st5" d="M189.2,97c-10.1,0-19.8,2-28.6,5.6v553h39.8V97H189.2z"/>
	<path class="st6" d="M539.8,203.6h30.4v-88.8c0-9.9-8-17.9-17.9-17.9h-93.2v30.4c0,3.2,2.6,5.8,5.8,5.8h24.5
		c24.6,0,44.6,19.9,44.6,44.6v20C534,201,536.6,203.6,539.8,203.6L539.8,203.6z"/>
	<path class="st7" d="M570.2,707.7H175.8c-34.7,0-62.9-28.2-62.9-62.9c0-34.7,28.2-62.9,62.9-62.9h394.4L570.2,707.7L570.2,707.7z"
		/>
	<path class="st8" d="M175.8,676.5c-17.4,0-31.6-14.2-31.6-31.6s14.2-31.6,31.6-31.6h394.4v63.3H175.8z"/>
	<path class="st9" d="M503.8,613.2h66.4v63.3h-66.4V613.2z"/>
	<path class="st6" d="M539.8,475.3h30.4v88.8c0,9.9-8,17.9-17.9,17.9h-93.2v-30.4c0-3.2,2.6-5.8,5.8-5.8h24.5
		c24.6,0,44.6-19.9,44.6-44.6v-20C534,477.9,536.6,475.3,539.8,475.3L539.8,475.3z"/>
	<path class="st10" d="M200.7,324.2l166.9-166.9l166.9,166.9L367.6,491.1L200.7,324.2z"/>
	<path class="st11" d="M367.7,157.3l-26.6,26.6l104.2,104.2c19.9,19.9,19.9,52.3,0,72.2L341.1,464.5l26.6,26.6l166.9-166.9
		L367.7,157.3z"/>
	<path class="st12" d="M305.9,324.2l61.7-61.7l61.7,61.7l-61.7,61.7L305.9,324.2z"/>
	<path class="st6" d="M449.9,613.2V751l33-19.9l31.8,19.9V613.2H449.9z"/>
	<path class="st13" d="M449.9,613.2h64.8V653h-64.8V613.2z"/>
	<path class="st14" d="M367.7,504.4c-3.4,0-6.8-1.3-9.4-3.9L191.4,333.6c-5.2-5.2-5.2-13.6,0-18.8l166.9-166.9
		c2.5-2.5,5.9-3.9,9.4-3.9c3.5,0,6.9,1.4,9.4,3.9l166.9,166.9c5.2,5.2,5.2,13.6,0,18.8L377.1,500.5
		C374.5,503.1,371.1,504.4,367.7,504.4z M219.6,324.2l148.1,148.1l148.1-148.1L367.7,176.1L219.6,324.2z"/>
	<path class="st14" d="M367.7,399.2c-3.5,0-6.9-1.4-9.4-3.9l-61.7-61.7c-5.2-5.2-5.2-13.6,0-18.8l61.7-61.7c2.5-2.5,5.9-3.9,9.4-3.9
		c3.5,0,6.9,1.4,9.4,3.9l61.7,61.7c2.5,2.5,3.9,5.9,3.9,9.4s-1.4,6.9-3.9,9.4l-61.7,61.7C374.6,397.8,371.3,399.2,367.7,399.2
		L367.7,399.2z M324.8,324.2l42.9,42.9l42.9-42.9l-42.9-42.9L324.8,324.2z"/>
	<path class="st15" d="M552.3,87h-93.2H364c-5.5,0-10,4.5-10,10s4.5,10,10,10h85.1v20.5c0,8.7,7.1,15.8,15.8,15.8h24.5
		c19.1,0,34.6,15.5,34.6,34.6v20c0,8.7,7.1,15.8,15.8,15.8h20.5v251.8h-20.5c-8.7,0-15.8,7.1-15.8,15.8v20
		c0,19.1-15.5,34.6-34.6,34.6h-24.5c-8.7,0-15.8,7.1-15.8,15.8V572H210.4V426.3c0-5.5-4.5-10-10-10s-10,4.5-10,10V572h-14.6
		c-20.8,0-39.6,8.8-52.9,22.9V178c0-38,30-69.1,67.6-71v279.5c0,5.5,4.5,10,10,10s10-4.5,10-10V106.9h113.8c5.5,0,10-4.5,10-10
		c0-5.5-4.5-10-10-10H200.4h-11.2c-47.5,0-86.2,38.7-86.2,86.2v464.2c0,0,1.5,21.8,1.9,24c7.6,32.2,36.5,56.2,70.9,56.2h264.1V751
		c0,3.6,1.9,6.9,5.1,8.7c1.5,0.9,3.2,1.3,4.9,1.3c1.8,0,3.6-0.5,5.1-1.4l27.7-16.7l26.6,16.6c3.1,1.9,6.9,2,10.1,0.3
		c3.2-1.8,5.1-5.1,5.1-8.7v-33.4h45.6c5.5,0,10-4.5,10-10V114.9C580.2,99.5,567.7,87,552.3,87L552.3,87z M543.9,193.7v-15.9
		c0-30.1-24.5-54.5-54.5-54.5h-20.4v-16.3h82.1c5,0,9.1,4.1,9.1,9.1v77.7H543.9z M469.1,555.7h20.4c30.1,0,54.5-24.5,54.5-54.5
		v-15.9h16.3v78.8c0,4.4-3.6,7.9-7.9,7.9h-83.2L469.1,555.7L469.1,555.7z M504.7,733.1l-16.6-10.4c-3.2-2-7.2-2-10.4-0.1l-17.9,10.8
		V623.2h44.9L504.7,733.1z M560.3,697.8h-35.6v-11.3h35.6V697.8z M560.3,666.5h-35.6v-43.4h35.6V666.5z M560.3,603.3h-45.6h-64.8
		h-274c-22.9,0-41.6,18.7-41.6,41.6c0,22.9,18.7,41.6,41.6,41.6h87.5c5.5,0,10-4.5,10-10s-4.5-10-10-10h-87.5
		c-12,0-21.7-9.7-21.7-21.7c0-12,9.7-21.7,21.7-21.7h264.1v43.4H303.2c-5.5,0-10,4.5-10,10c0,5.5,4.5,10,10,10h136.7v11.3H175.8
		c-29.2,0-52.9-23.7-52.9-52.9s23.7-52.9,52.9-52.9h283.3h93.2h7.9V603.3z"/>
</g>
<rect x="1542.4" y="284.4" class="st16" width="0" height="3.2"/>
<g>
	<path class="st17" d="M482,440c-74.9,0-149.4,0-223.9,0c0-69.2,0-138.4,0-207.7c74.6,0,149.3,0,223.9,0
		C482,301.5,482,370.7,482,440z"/>
</g>
<path class="st18" d="M494.9,391.2c-10,4.9-19.9,9.8-29.9,14.7c-3.7,1.8-7.4,3.7-11.1,5.5c-1.5,0.7-1.9,1.6-1.3,3.2
	c4.3,12.7,8.5,25.4,12.7,38.1c0.1,0.4,0.1,0.8,0.1,1.5c-1,0.1-1.9,0.2-2.7,0.2c-13.2,0-26.3,0-39.5,0.1c-2.2,0-3-0.7-3.6-2.8
	c-1.6-6.2-3.5-12.3-5.3-18.5c-0.5-1.6-1.4-1.7-2.7-1.1c-13.5,6.7-27,13.4-40.5,20.2c-0.1,0-0.2,0.1-0.2,0.1
	c-3.7,1.9-5.5,1.2-6.6-2.8c-0.2-0.6,0.8-1.9,1.5-2.4c6.2-3.8,12.4-7.5,18.6-11.2c8-4.7,15.9-9.5,23.9-14.2c2-1.2,2.2-2.3,1.4-4.5
	c-1.4-3.7-2.3-7.6-3.5-11.3c-0.4-1.3-0.8-2.6-1.4-4.3c-4.5,2.7-8.6,5.2-12.7,7.6c-12.2,7.3-24.4,14.6-36.6,21.9
	c-1.5,0.9-2.1,0.2-2.8-0.9c-5.2-8.6-10.4-17.1-15.6-25.7c-2.8-4.7-5.6-9.4-8.4-14.1c-0.3-0.5-1-0.8-1.6-0.9c-0.2,0-0.7,0.8-0.9,1.3
	c-2.1,7.5-4.1,14.9-6.2,22.4c-3.3,11.7-6.7,23.3-10.1,35c-0.5,1.6-0.9,3.3-1.6,4.8c-0.3,0.6-1.3,1.3-2.1,1.3
	c-13.7,0.1-27.4,0.1-41,0.1c-1.5,0-1.8-0.7-1.3-1.9c3.7-9.6,7.5-19.1,11.2-28.7c3.9-10.2,7.8-20.4,11.8-30.6
	c3.8-9.7,7.6-19.5,11.4-29.2c1.6-4.2,3.4-8.3,4.9-12.5c0.3-0.9,0.2-2.4-0.4-3.3c-8.4-13.9-16.9-27.7-25.4-41.5
	c-7.1-11.5-14.2-23-21.2-34.5c-8-13-15.9-26.1-23.8-39.2c-1.8-3-1.8-3.1,1.3-4.9c9.3-5.4,18.6-10.8,27.9-16.3
	c1.3-0.8,2.2-0.8,3.1,0.7c9.3,14.9,18.7,29.8,28,44.7c9,14.3,17.9,28.7,26.9,43c0.5,0.8,1.2,1.6,2.1,2.8c1.6-3.9,3.1-7.4,4.4-10.9
	c3.9-10,7.7-20.1,11.5-30.2c3.9-10.1,7.8-20.3,11.7-30.4c2.4-6.1,4.7-12.3,7.1-18.4c0.6-1.5,1.6-2.3,3.4-2.3c8,0.1,16,0.1,24.1,0
	c2,0,3,0.5,3.7,2.7c3.6,11.7,7.5,23.2,11.3,34.8c4.8,14.6,9.5,29.2,14.2,43.8c3.9,11.9,7.8,23.7,11.6,35.6c1.2,3.8,2.4,7.5,3.6,11.3
	c0.5,1.6,1.2,2.1,2.7,1.2c8.9-5.3,17.8-10.6,26.7-15.8c2.7-1.6,5.4-3.1,8-4.9c1.6-1.1,2.3-0.8,2.9,0.9c3.7,10.1,7.5,20.2,11.1,30.4
	c1.9,5.2,1.8,5.2-3.1,8.1c-11.2,6.7-22.5,13.3-33.6,20c-0.6,0.4-1.3,1.8-1.1,2.4c1.5,4.9,3.3,9.7,4.8,14.6c0.6,2,0.5,3.9,2.2,2.9
	c11.6-7,24.1-15.8,35.8-22.8c3.5-2.1,3.6-2.1,5.2,1.7c1.7,3.9,3.4,7.9,5.1,11.8C494.9,390.2,494.9,390.7,494.9,391.2z M364,263.9
	c-0.3,0-0.5,0.1-0.8,0.1c-0.5,1.8-1.1,3.6-1.6,5.4c-6.4,21.9-12.7,43.8-19,65.8c-0.2,0.8,0,1.9,0.5,2.5
	c7.9,12.6,15.8,25.2,23.7,37.8c0.8,1.3,1.5,1.7,3,0.8c7-4.2,14-8.5,21.1-12.5c2-1.2,2.4-2.3,1.7-4.4c-1.9-5.7-3.6-11.4-5.2-17.2
	c-3.4-11.5-6.7-23-10-34.4c-4-13.9-8.1-27.8-12.2-41.7C364.8,265.4,364.3,264.7,364,263.9z"/>
</svg>
